<?xml version="1.0" encoding="UTF-8" standalone="no"?>
<svg
   xml:space="preserve"
   width="611.55359"
   height="580.64661"
   data-id="lg_iqlklspQ9PeJoyYa0n"
   data-version="1"
   viewBox="0 0 611.55358 580.6466"
   version="1.1"
   id="svg4"
   xmlns="http://www.w3.org/2000/svg"
   xmlns:svg="http://www.w3.org/2000/svg"><defs
     id="defs4" /><g
     transform="matrix(1.72194,0,0,1.72194,-630.27614,-707.39974)"
     id="g3"
     style="fill:#000000"><path
       style="opacity:1;fill:#000000;fill-opacity:1;stroke:none;stroke-width:0;stroke-dasharray:none;stroke-opacity:0.624642"
       d="m 257.17348,662.21463 c -52.1747,-6.0765 -97.11001,-46.42513 -111.22944,-99.87592 -5.13044,-19.42191 -5.12066,-49.00403 0.0227,-68.62433 8.28144,-31.59111 28.38296,-60.43079 55.23611,-79.24728 12.55204,-8.79544 14.38476,-10.8032 15.27829,-16.73742 2.48156,-16.48076 6.99974,-36.38602 11.19914,-49.3388 12.88524,-39.74372 40.9554,-81.68682 71.6799,-107.10582 l 14.3624,-11.88231 2.06282,-18.14082 c 4.22481,-37.1538 16.70015,-65.55745 38.51209,-87.68369 17.41114,-17.66205 31.35338,-26.864075 51.22474,-33.808902 13.06279,-4.565299 19.20512,-5.586334 37.63508,-6.256046 18.63318,-0.677097 24.25975,-0.187453 36.5408,3.179908 27.59426,7.566113 51.97255,23.67854 69.73257,46.08856 18.8258,23.75486 26.85205,44.23871 29.89615,76.29838 l 1.81052,19.06797 7.69564,6.34174 c 46.9862,38.71989 77.68689,90.48013 87.94683,148.27507 4.26607,24.03106 3.698,22.93073 16.2334,31.44336 29.19446,19.82556 47.7949,45.87801 57.19674,80.11179 4.91524,17.89726 4.51655,51.34045 -0.83635,70.15301 -10.73264,37.71959 -37.41389,69.50948 -72.83423,86.77976 -16.40991,8.00116 -31.24723,10.99113 -54.69648,11.02223 -22.67823,0.0301 -34.31101,-2.72224 -58.84354,-13.92236 -7.68557,-3.50878 -15.61811,-5.98898 -17.62785,-5.51158 -2.00975,0.47741 -12.9374,4.22554 -24.28367,8.32919 -25.96807,9.39195 -45.51126,11.84846 -84.96424,10.67974 -31.56274,-0.93497 -43.60723,-3.46096 -75.43829,-15.821 l -13.30691,-5.16711 -7.88531,4.55478 c -13.46731,7.77908 -34.58057,14.5903 -51.73425,16.68966 -9.04385,1.10684 -16.85445,1.90669 -17.35688,1.77746 -0.50244,-0.12925 -6.45525,-0.8804 -13.22847,-1.66922 z m 37.2443,-67.49136 c 13.37221,-4.18321 24.99141,-12.78862 34.68308,-25.68703 9.54955,-12.70928 11.60965,-19.98254 11.62704,-41.04972 0.014,-16.98601 -0.41313,-19.16909 -5.95512,-30.43608 -8.72434,-17.73669 -23.92771,-31.27824 -40.90693,-36.43551 -42.19744,-12.81709 -85.35121,16.76389 -88.6808,60.78878 -3.81938,50.501 41.73673,87.67765 89.23273,72.81956 z m 192.48843,-0.96786 c 7.03411,-1.76616 13.42082,-3.7706 14.19269,-4.4543 0.77187,-0.68372 -1.07801,-9.30435 -4.11084,-19.15697 -4.90126,-15.92251 -5.51425,-20.48655 -5.51425,-41.05685 0,-26.8787 2.4186,-38.3294 12.57547,-59.53796 18.43353,-38.491 49.70437,-64.34894 89.20923,-73.76735 8.25017,-1.96694 15.85522,-4.10461 16.90013,-4.7504 3.15703,-1.95115 2.15532,-10.80692 -2.67359,-23.63612 -9.7049,-25.78356 -21.54208,-45.20635 -40.73994,-66.84735 l -7.29351,-8.22168 -4.2995,5.48112 c -20.88493,26.62475 -47.3461,44.38898 -77.67521,52.14587 -32.92447,8.42066 -71.51643,1.44235 -99.69899,-18.02785 -4.29124,-2.96464 -14.91697,-12.05956 -23.61274,-20.2109 -9.17168,-8.5975 -17.38569,-14.82064 -19.56193,-14.82064 -6.04215,0 -31.63713,33.7642 -39.54287,52.16384 -6.00341,13.97226 -11.86913,32.57703 -11.86913,37.64633 0,3.84817 1.02495,5.33666 4.11084,5.96997 44.20732,9.07255 70.28039,24.71307 92.07197,55.23144 17.97636,25.17528 25.17591,48.47096 25.04003,81.02253 -0.0951,22.77913 -0.82433,26.57738 -10.92351,56.89478 -1.13238,3.39939 9.30868,7.53181 26.72868,10.57883 14.74977,2.57995 51.71429,1.11309 66.68697,-2.64634 z m 160.77954,-0.64388 c 13.67761,-6.08143 22.21471,-12.60112 29.50525,-22.53283 17.93829,-24.43685 17.48911,-59.89553 -1.08738,-85.83729 -23.34572,-32.60193 -73.14539,-35.80811 -102.36319,-6.59032 -25.16386,25.16388 -26.37622,69.83399 -2.61263,96.26481 8.99859,10.00862 16.57933,15.2616 29.62726,20.52987 11.72149,4.73271 34.13096,3.85686 46.93069,-1.83424 z M 477.53379,281.56029 c 12.75933,-6.24258 25.33845,-18.9247 31.77928,-32.03954 4.60379,-9.37427 4.99874,-11.91076 4.99874,-32.10297 0,-20.84477 -0.26455,-22.40203 -5.37191,-31.62153 -7.02696,-12.68461 -20.52282,-26.23951 -31.51243,-31.65032 -7.70353,-3.79289 -11.39214,-4.32863 -29.80262,-4.32863 -19.77594,0 -21.57393,0.31193 -30.58844,5.30684 -13.01134,7.20954 -24.86824,19.31951 -30.81351,31.47118 -7.04468,14.39882 -8.33422,40.85642 -2.70445,55.48751 7.4414,19.33936 22.28815,34.78965 40.83716,42.4973 12.20918,5.07327 39.84398,3.50397 53.17818,-3.01984 z"
       id="path5"
       transform="matrix(0.58074033,0,0,0.58074033,283.502,362.46841)" /></g></svg>
